HIERARCHY
ROOT Hips
{
	OFFSET -0.001795 -0.223333 0.028219
	CHANNELS 6 Xposition Yposition Zposition Zrotation Yrotation Xrotation 
	JOINT LeftUpLeg
	{
		OFFSET 0.069520 -0.091406 -0.006815
		CHANNELS 3 Zrotation Yrotation Xrotation
		JOINT LeftLeg
		{
			OFFSET 0.034277 -0.375199 -0.004496
			CHANNELS 3 Zrotation Yrotation Xrotation
			JOINT LeftFoot
			{
				OFFSET -0.013596 -0.397961 -0.043693
				CHANNELS 3 Zrotation Yrotation Xrotation
				JOINT LeftToe
				{
					OFFSET 0.026358 -0.055791 0.119288
					CHANNELS 3 Zrotation Yrotation Xrotation
					End Site
					{
						OFFSET 0.000000 0.000000 0.000000
					}
				}
			}
		}
	}
	JOINT RightUpLeg
	{
		OFFSET -0.067670 -0.090522 -0.004320
		CHANNELS 3 Zrotation Yrotation Xrotation
		JOINT RightLeg
		{
			OFFSET -0.038290 -0.382569 -0.008850
			CHANNELS 3 Zrotation Yrotation Xrotation
			JOINT RightFoot
			{
				OFFSET 0.015774 -0.398415 -0.042312
				CHANNELS 3 Zrotation Yrotation Xrotation
				JOINT RightToe
				{
					OFFSET -0.025372 -0.048144 0.123348
					CHANNELS 3 Zrotation Yrotation Xrotation
					End Site
					{
						OFFSET 0.000000 0.000000 0.000000
					}
				}
			}
		}
	}
	JOINT Spine
	{
		OFFSET -0.002533 0.108963 -0.026696
		CHANNELS 3 Zrotation Yrotation Xrotation
		JOINT Spine1
		{
			OFFSET 0.005487 0.135180 0.001092
			CHANNELS 3 Zrotation Yrotation Xrotation
			JOINT Spine2
			{
				OFFSET 0.001457 0.052922 0.025425
				CHANNELS 3 Zrotation Yrotation Xrotation
				JOINT Neck
				{
					OFFSET -0.002778 0.213870 -0.042857
					CHANNELS 3 Zrotation Yrotation Xrotation
					JOINT Head
					{
						OFFSET 0.005152 0.064970 0.051349
						CHANNELS 3 Zrotation Yrotation Xrotation
						End Site
						{
							OFFSET 0.000000 0.000000 0.000000
						}
					}
				}
				JOINT LeftShoulder
				{
					OFFSET 0.078845 0.121749 -0.034090
					CHANNELS 3 Zrotation Yrotation Xrotation
					JOINT LeftArm
					{
						OFFSET 0.090977 0.030469 -0.008868
						CHANNELS 3 Zrotation Yrotation Xrotation
						JOINT LeftForeArm
						{
							OFFSET 0.259612 -0.012772 -0.027456
							CHANNELS 3 Zrotation Yrotation Xrotation
							JOINT LeftHand
							{
								OFFSET 0.249234 0.008986 -0.001171
								CHANNELS 3 Zrotation Yrotation Xrotation
								End Site
								{
									OFFSET 0.000000 0.000000 0.000000
								}
							}
						}
					}
				}
				JOINT RightShoulder
				{
					OFFSET -0.081759 0.118833 -0.038615
					CHANNELS 3 Zrotation Yrotation Xrotation
					JOINT RightArm
					{
						OFFSET -0.096012 0.032551 -0.009143
						CHANNELS 3 Zrotation Yrotation Xrotation
						JOINT RightForeArm
						{
							OFFSET -0.253742 -0.013329 -0.021401
							CHANNELS 3 Zrotation Yrotation Xrotation
							JOINT RightHand
							{
								OFFSET -0.255298 0.007772 -0.005559
								CHANNELS 3 Zrotation Yrotation Xrotation
								End Site
								{
									OFFSET 0.000000 0.000000 0.000000
								}
							}
						}
					}
				}
			}
		}
	}
}
MOTION
Frames: 15
Frame Time: 0.050000
0.000000 0.951505 0.000000 0.950936 -1.075526 4.176811 5.783582 -0.270670 -3.762132 -3.916391 0.431638 -2.215038 6.042836 15.398709 24.319505 0.000000 0.000000 0.000000 -8.276364 0.424881 -4.491564 4.229927 -0.420773 3.500968 -8.681112 -20.867281 25.237853 0.000000 0.000000 0.000000 -0.892626 -0.052117 2.228372 5.214660 -1.644912 -10.570194 2.327417 -0.620035 23.939370 0.594275 0.169831 -11.923949 0.000000 0.000000 0.000000 -15.492643 -1.007306 -0.113062 -49.570618 -14.185686 -2.106651 -50.646818 -65.337924 39.183353 0.000000 0.000000 0.000000 7.896180 8.795362 3.207222 50.801018 19.387783 1.113302 32.782794 78.777017 31.975304 0.000000 0.000000 0.000000 
0.000391 0.951083 -0.002150 0.909925 -0.136404 5.074905 5.973440 -0.302488 -3.946543 -4.093689 0.433699 -4.141771 5.514105 14.868619 24.328563 0.000000 0.000000 0.000000 -8.170267 0.445638 -5.121922 4.510978 -0.469281 3.051882 -9.650178 -22.043858 25.292833 0.000000 0.000000 0.000000 -0.072970 -0.042944 1.123631 5.852981 -1.972755 -9.133001 2.588160 -0.974098 24.211989 1.212966 -0.504613 -9.007658 0.000000 0.000000 0.000000 -17.523641 -1.341826 -0.061378 -47.630694 -15.658259 -1.606725 -46.656524 -64.088694 35.231250 0.000000 0.000000 0.000000 6.649466 11.114581 4.166705 49.900491 23.150472 2.605649 12.259488 78.062744 14.774586 0.000000 0.000000 0.000000 
0.000961 0.950956 -0.005269 1.607955 0.286805 5.333445 5.631118 -0.352574 -4.859968 -4.842647 0.487355 -3.537465 5.259493 14.620426 24.402837 0.000000 0.000000 0.000000 -9.121096 0.452350 -6.127033 4.886885 -0.528113 3.957156 -10.305339 -22.838325 25.898259 0.000000 0.000000 0.000000 0.047861 -0.090761 2.190985 6.788591 -2.425490 -7.972763 2.316909 0.632537 23.963822 2.593699 -1.350780 -9.193387 0.000000 0.000000 0.000000 -17.651183 -3.375140 0.560880 -46.572585 -18.403162 -0.466471 -39.442506 -61.461192 28.007925 0.000000 0.000000 0.000000 8.729182 14.140642 5.813262 45.716493 28.912858 4.473191 -12.862466 69.837624 -4.360722 0.000000 0.000000 0.000000 
0.001626 0.950845 -0.008539 1.821651 0.311243 6.129457 5.737191 -0.405232 -5.884448 -5.482897 0.531709 -3.676822 5.249457 14.636203 24.658258 0.000000 0.000000 0.000000 -9.655972 0.482746 -7.528080 5.067984 -0.554301 4.184593 -10.349919 -22.824953 27.151046 0.000000 0.000000 0.000000 0.550051 -0.107983 2.018619 7.117984 -2.653717 -6.851465 2.874197 1.144019 23.988988 2.711973 -1.399713 -9.089294 0.000000 0.000000 0.000000 -18.972227 -4.702404 1.092510 -45.840057 -20.085600 0.149515 -36.515111 -58.778519 24.585194 0.000000 0.000000 0.000000 7.979514 16.787533 6.934740 42.742569 33.567592 5.724930 -17.743207 62.053818 -6.710817 0.000000 0.000000 0.000000 
0.002174 0.950887 -0.011556 2.366184 0.532809 6.086329 4.955523 -0.438196 -6.158622 -5.206403 0.510642 -3.516980 5.089461 14.485340 24.741620 0.000000 0.000000 0.000000 -9.977017 0.466661 -7.757033 4.749837 -0.512928 4.292841 -11.122526 -23.766687 27.570666 0.000000 0.000000 0.000000 1.320814 -0.237799 3.814566 6.686804 -2.417235 -7.481745 3.597375 1.757491 24.592426 2.916352 -1.351178 -10.293867 0.000000 0.000000 0.000000 -18.636943 -6.468263 1.901306 -47.121682 -21.535251 0.759780 -33.101841 -56.379807 21.310346 0.000000 0.000000 0.000000 8.189508 19.135873 8.063747 39.562639 38.792496 6.860089 -17.942571 51.616764 -5.568596 0.000000 0.000000 0.000000 
0.002243 0.951288 -0.014022 2.536793 0.811091 6.435390 4.613730 -0.476032 -6.596879 -4.910303 0.482112 -3.773113 4.904608 14.324873 24.950432 0.000000 0.000000 0.000000 -10.354811 0.460305 -8.384027 4.923867 -0.542268 4.307597 -11.248787 -23.808671 28.713445 0.000000 0.000000 0.000000 1.803736 -0.314938 4.587886 6.446997 -2.311883 -7.512071 4.164176 2.729177 24.882109 3.066242 -1.278293 -10.745523 0.000000 0.000000 0.000000 -18.974923 -7.824545 2.344126 -47.453400 -22.958747 1.368518 -30.994133 -54.270013 19.011361 0.000000 0.000000 0.000000 7.788959 21.040808 8.966785 37.152151 41.810724 7.273529 -18.984691 42.428567 -4.844351 0.000000 0.000000 0.000000 
0.001656 0.951913 -0.016100 2.763541 1.712346 6.845836 4.386669 -0.530681 -7.273935 -4.862867 0.469539 -3.484527 4.314154 13.628268 24.118259 0.000000 0.000000 0.000000 -10.396309 0.443694 -8.901841 4.963847 -0.561339 4.257055 -12.615070 -25.246168 30.242248 0.000000 0.000000 0.000000 2.317637 -0.403707 5.352967 6.367392 -2.213778 -8.054528 4.396630 2.534743 25.505551 3.637147 -1.513860 -12.219018 0.000000 0.000000 0.000000 -19.264572 -9.043103 2.933833 -48.329401 -23.190046 1.486109 -28.666994 -53.255275 17.344736 0.000000 0.000000 0.000000 7.101712 22.689687 9.567749 35.703590 44.077493 7.599427 -19.062844 35.072143 -4.010578 0.000000 0.000000 0.000000 
0.000433 0.952314 -0.017815 2.558048 1.984992 7.018951 4.856559 -0.539141 -7.631050 -5.077311 0.485258 -3.099637 3.873983 12.990901 23.246106 0.000000 0.000000 0.000000 -10.057751 0.461002 -9.514788 5.067239 -0.583578 4.602735 -13.432284 -26.071868 31.404988 0.000000 0.000000 0.000000 2.858816 -0.501398 6.101509 6.373372 -2.208243 -8.071779 4.537286 3.280889 25.543618 4.392095 -1.878921 -12.853584 0.000000 0.000000 0.000000 -19.914233 -10.356178 3.397765 -48.223608 -23.627960 1.703009 -26.575294 -52.520438 15.812433 0.000000 0.000000 0.000000 7.419737 23.638330 10.160051 33.577513 45.628255 7.443740 -18.202326 28.321460 -3.001344 0.000000 0.000000 0.000000 
-0.001040 0.952699 -0.019209 2.459703 2.363371 7.170647 5.123909 -0.553440 -7.980834 -5.105650 0.488215 -2.582247 3.347807 12.199003 22.143967 0.000000 0.000000 0.000000 -9.924361 0.461890 -9.659368 5.387925 -0.638760 4.620885 -13.790942 -26.463192 31.309249 0.000000 0.000000 0.000000 3.211276 -0.570778 6.587221 6.131458 -2.092023 -8.232263 4.820439 3.399997 25.899433 4.706493 -1.893369 -14.153794 0.000000 0.000000 0.000000 -20.125463 -11.076845 3.710716 -48.684687 -23.905400 1.844546 -23.979520 -51.528636 14.126630 0.000000 0.000000 0.000000 7.126895 24.395641 10.449783 32.441551 46.347845 7.300989 -17.772103 23.382172 -2.365113 0.000000 0.000000 0.000000 
-0.002316 0.953198 -0.020194 2.386767 2.489877 7.320201 5.260731 -0.561522 -8.177282 -4.957252 0.478413 -2.217894 2.880762 11.433391 21.163532 0.000000 0.000000 0.000000 -9.682796 0.476621 -9.811277 5.442386 -0.647179 4.477020 -14.265187 -26.982333 31.533317 0.000000 0.000000 0.000000 3.814727 -0.673762 7.148373 5.802527 -1.934671 -8.539617 4.848832 3.822534 26.431327 4.616307 -1.615734 -15.178465 0.000000 0.000000 0.000000 -20.500928 -12.091708 4.141282 -48.475572 -23.954505 1.835262 -21.638463 -51.375990 12.837569 0.000000 0.000000 0.000000 7.037024 25.027493 10.755205 31.125471 46.595005 6.932166 -17.848928 19.509498 -1.940866 0.000000 0.000000 0.000000 
-0.003096 0.953139 -0.020782 2.550895 2.683835 7.477146 5.307121 -0.576115 -8.421355 -4.776855 0.464753 -1.814308 1.761883 9.802938 20.397859 0.000000 0.000000 0.000000 -9.949424 0.460870 -9.914549 5.638535 -0.678990 4.391552 -14.259088 -26.947285 31.554120 0.000000 0.000000 0.000000 3.987802 -0.733727 7.645055 5.419230 -1.815597 -8.153928 5.036415 4.085638 26.128576 4.642588 -1.527682 -15.532340 0.000000 0.000000 0.000000 -20.780069 -12.437607 4.216169 -48.515092 -23.975296 1.910932 -19.795789 -51.104463 11.783457 0.000000 0.000000 0.000000 6.950698 25.440783 10.959783 30.315579 46.736623 6.740951 -17.625351 16.351649 -1.542974 0.000000 0.000000 0.000000 
-0.003518 0.953242 -0.020998 2.650211 2.786822 7.535244 5.277336 -0.580238 -8.443548 -4.672358 0.454492 -1.863943 1.321233 9.211763 20.375507 0.000000 0.000000 0.000000 -10.064313 0.452293 -9.964190 5.464866 -0.655728 4.476819 -13.713181 -26.301412 31.424018 0.000000 0.000000 0.000000 4.248436 -0.787536 7.956055 5.220829 -1.718888 -8.372678 5.204163 4.427858 26.616452 4.658916 -1.443023 -15.833681 0.000000 0.000000 0.000000 -21.568524 -12.804643 4.305824 -47.976951 -24.012499 1.874267 -18.523590 -51.056879 11.097138 0.000000 0.000000 0.000000 7.014194 25.921167 11.226417 28.715558 46.275366 6.054927 -17.441488 14.515252 -1.319635 0.000000 0.000000 0.000000 
-0.003746 0.953256 -0.020983 2.730990 2.823858 7.625781 5.250493 -0.581777 -8.418364 -4.547501 0.443375 -1.909682 0.861128 8.514385 20.079031 0.000000 0.000000 0.000000 -10.152117 0.448777 -10.004811 5.387950 -0.642666 4.326759 -13.648254 -26.183302 31.714624 0.000000 0.000000 0.000000 4.486886 -0.827006 8.097519 5.054118 -1.695517 -7.848153 5.143036 4.894746 26.359514 4.750008 -1.462962 -15.611256 0.000000 0.000000 0.000000 -21.695811 -12.933966 4.223999 -47.579069 -23.836144 1.827395 -17.837544 -51.010804 10.657197 0.000000 0.000000 0.000000 7.026197 26.196583 11.409007 27.967657 45.849973 5.741521 -17.471444 13.296123 -1.178785 0.000000 0.000000 0.000000 
-0.004055 0.953272 -0.020828 2.760792 2.444441 7.629632 5.322002 -0.564509 -8.191789 -4.640740 0.453266 -2.204917 0.852046 8.483093 20.256769 0.000000 0.000000 0.000000 -10.232098 0.456850 -10.015143 5.418449 -0.642362 4.463034 -13.009430 -25.586873 30.674468 0.000000 0.000000 0.000000 4.677050 -0.878278 8.480714 4.887630 -1.629251 -7.933897 5.268213 5.504774 26.647379 4.797062 -1.373344 -16.016759 0.000000 0.000000 0.000000 -21.947665 -13.148834 4.225736 -47.213364 -23.963312 1.854929 -17.324759 -50.760516 10.291484 0.000000 0.000000 0.000000 6.974205 26.272356 11.469685 27.072570 45.644302 5.406003 -17.367440 12.595475 -1.090648 0.000000 0.000000 0.000000 
-0.004423 0.953305 -0.020458 2.850689 2.424392 7.711462 5.361002 -0.560993 -8.122271 -4.774147 0.461866 -2.479179 0.726717 8.364173 20.502145 0.000000 0.000000 0.000000 -10.319010 0.454888 -10.080489 5.347196 -0.631048 4.450234 -12.859061 -25.400500 30.731110 0.000000 0.000000 0.000000 4.679872 -0.873272 8.406406 4.825974 -1.618658 -7.754753 5.229972 5.618397 26.506790 4.724684 -1.338333 -15.784830 0.000000 0.000000 0.000000 -22.061542 -12.971308 4.086823 -46.674665 -23.732555 1.741092 -17.585289 -50.823574 10.396563 0.000000 0.000000 0.000000 6.972533 26.319013 11.502975 26.710928 45.265382 5.205582 -17.287667 12.720162 -1.101028 0.000000 0.000000 0.000000 
